HIERARCHY
ROOT Hips
{
	OFFSET 0.00000 0.00000 0.00000
	CHANNELS 6 Xposition Yposition Zposition Zrotation Yrotation Xrotation 
	JOINT LHipJoint
	{
		OFFSET 0 0 0
		CHANNELS 3 Zrotation Yrotation Xrotation
		JOINT LeftHip
		{
			OFFSET 1.58895 -1.83665 0.71753
			CHANNELS 3 Zrotation Yrotation Xrotation
			JOINT LeftKnee
			{
				OFFSET 2.50528 -6.88321 0.00000
				CHANNELS 3 Zrotation Yrotation Xrotation
				JOINT LeftAnkle
				{
					OFFSET 2.63244 -7.23257 0.00000
					CHANNELS 3 Zrotation Yrotation Xrotation
					JOINT LeftToe
					{
						OFFSET 0.23691 -0.65090 1.72750
						CHANNELS 3 Zrotation Yrotation Xrotation
						End Site
						{
							OFFSET 0.00000 -0.00000 0.92561
						}
					}
				}
			}
		}
	}
	JOINT RHipJoint
	{
		OFFSET 0 0 0
		CHANNELS 3 Zrotation Yrotation Xrotation
		JOINT RightHip
		{
			OFFSET -1.51435 -1.83665 0.71753
			CHANNELS 3 Zrotation Yrotation Xrotation
			JOINT RightKnee
			{
				OFFSET -2.54551 -6.99375 0.00000
				CHANNELS 3 Zrotation Yrotation Xrotation
				JOINT RightAnkle
				{
					OFFSET -2.66027 -7.30903 0.00000
					CHANNELS 3 Zrotation Yrotation Xrotation
					JOINT RightToe
					{
						OFFSET -0.22981 -0.63138 2.03959
						CHANNELS 3 Zrotation Yrotation Xrotation
						End Site
						{
							OFFSET -0.00000 -0.00000 1.07060
						}
					}
				}
			}
		}
	}
	JOINT lowerback
	{
		OFFSET 0 0 0
		CHANNELS 3 Zrotation Yrotation Xrotation
		JOINT Chest
		{
			OFFSET -0.02651 1.86275 -0.11152
			CHANNELS 3 Zrotation Yrotation Xrotation
			JOINT Chest2
			{
				OFFSET 0.01019 1.86224 0.04087
				CHANNELS 3 Zrotation Yrotation Xrotation
				JOINT lowerneck
				{
					OFFSET 0 0 0
					CHANNELS 3 Zrotation Yrotation Xrotation
					JOINT Neck
					{
						OFFSET -0.01926 1.80512 0.08867
						CHANNELS 3 Zrotation Yrotation Xrotation
						JOINT Head
						{
							OFFSET 0.05516 1.76451 -0.38475
							CHANNELS 3 Zrotation Yrotation Xrotation
							End Site
							{
								OFFSET 0.01592 1.82587 -0.14001
							}
						}
					}
				}
				JOINT LeftCollar
				{
					OFFSET 0 0 0
					CHANNELS 3 Zrotation Yrotation Xrotation
					JOINT LeftShoulder
					{
						OFFSET 3.47116 1.51376 0.14491
CHANNELS 3 Zrotation Xrotation Yrotation
						JOINT LeftElbow
						{
OFFSET 0 -4.780950 0.000000
CHANNELS 3 Zrotation Xrotation Yrotation
							JOINT LeftWrist
							{
OFFSET 0 -3.586150 -0.000000
CHANNELS 3 Zrotation Xrotation Yrotation
								JOINT lhand
								{
									OFFSET 0 0 0
CHANNELS 3 Zrotation Xrotation Yrotation
									JOINT LFingers
									{
OFFSET 0 -0.659810 0.000000
CHANNELS 3 Zrotation Xrotation Yrotation
										End Site
										{
OFFSET 0 -0.531960 0.000000
										}
									}
								}
								JOINT LThumb
								{
OFFSET 0 0.000000 0.000000
CHANNELS 3 Zrotation Xrotation Yrotation
									End Site
									{
OFFSET 0 -0.540080 0.540080
									}
								}
							}
						}
					}
				}
				JOINT RightCollar
				{
					OFFSET 0 0 0
					CHANNELS 3 Zrotation Yrotation Xrotation
					JOINT RightShoulder
					{
						OFFSET -3.31725 1.61216 0.35156
CHANNELS 3 Zrotation Xrotation Yrotation
						JOINT RightElbow
						{
OFFSET 0 -4.489130 0.000000
CHANNELS 3 Zrotation Xrotation Yrotation
							JOINT RightWrist
							{
OFFSET 0 -3.705100 0.000000
CHANNELS 3 Zrotation Xrotation Yrotation
								JOINT rhand
								{
									OFFSET 0 0 0
CHANNELS 3 Zrotation Xrotation Yrotation
									JOINT RFingers
									{
OFFSET 0 -0.449140 0.000000
CHANNELS 3 Zrotation Xrotation Yrotation
										End Site
										{
OFFSET 0 -0.362110 0.000000
										}
									}
								}
								JOINT RThumb
								{
OFFSET 0 0.000000 0.000000
CHANNELS 3 Zrotation Xrotation Yrotation
									End Site
									{
OFFSET 0 -0.367630 0.367630
									}
								}
							}
						}
					}
				}
			}
		}
	}
}
MOTION
Frames: 10
Frame Time: 0.008333333333333333
-0.574500 18.694500 5.541500 -1.605400 -4.615800 1.980900 0.000000 0.000000 0.000000 -13.539300 -8.614000 -0.934600 1.218100 7.000700 19.717400 1.785900 7.614700 -28.956100 7.794400 -15.965900 -51.818500 0.000000 0.000000 0.000000 0.000000 0.000000 0.000000 0.000000 0.000000 0.000000 -0.000000 -0.000000 0.000000 -0.000000 -0.000000 0.000000 -0.735000 0.261700 2.038900 1.243900 0.362200 -2.448300 1.674100 0.218300 -3.674500 -3.023100 -0.964700 -14.823400 2.873300 -1.341100 24.105200 1.350000 -0.563800 10.170200 0.000000 0.000000 0.000000 0.350000 11.357900 -33.462000 19.955700 -30.588900 5.508800 12.409600 -8.314300 23.415500 0.000000 0.000000 0.000000 -7.125000 0.000000 0.000000 -10.374700 6.391100 -9.313100 0.000000 0.000000 0.000000 -1.859600 16.629300 28.588900 -25.047200 -36.252200 -8.317800 -10.234900 22.908100 38.416700 0.000000 0.000000 0.000000 7.125000 0.000000 -0.000000 32.435400 66.087000 -17.284200
-0.575417 18.694581 5.546605 -1.603249 -4.648420 1.934999 0.000000 0.000000 0.000000 -13.569931 -8.651210 -0.812590 1.214951 6.991996 19.691641 1.788323 7.680511 -29.013037 7.791143 -15.963455 -51.806930 0.000000 0.000000 0.000000 0.000000 0.000000 0.000000 0.000000 0.000000 0.000000 0.000000 0.000000 0.000000 0.000000 0.000000 0.000000 -0.767962 0.275527 2.049662 1.253530 0.379629 -2.442970 1.701657 0.228044 -3.676090 -3.325999 -0.972531 -14.988856 3.148515 -1.344512 24.321216 1.500660 -0.559812 10.284268 0.000000 0.000000 0.000000 0.329673 11.326216 -33.437482 19.935389 -30.564450 5.498476 12.396969 -8.304721 23.411923 0.000000 0.000000 0.000000 -7.125000 0.000000 0.000000 -10.382407 6.396066 -9.319273 0.000000 0.000000 0.000000 -1.884922 16.650443 28.636287 -25.042750 -36.247623 -8.315162 -10.397882 22.955676 38.370841 0.000000 0.000000 0.000000 7.125000 0.000000 0.000000 32.199691 66.096898 -17.154297
-0.575573 18.695981 5.549038 -1.620451 -4.629563 1.964737 0.000000 0.000000 0.000000 -13.554647 -8.685949 -0.818306 1.212077 6.984059 19.668105 1.783250 7.719547 -29.003954 7.780273 -15.955239 -51.767465 0.000000 0.000000 0.000000 0.000000 0.000000 0.000000 0.000000 0.000000 0.000000 0.000000 0.000000 0.000000 0.000000 0.000000 0.000000 -0.769828 0.258806 2.017098 1.263242 0.357792 -2.463225 1.713996 0.217415 -3.677928 -3.296078 -0.949120 -14.991754 3.073304 -1.299985 24.361283 1.475180 -0.545555 10.297064 0.000000 0.000000 0.000000 0.314504 11.336847 -33.413056 19.969644 -30.605740 5.515899 12.358266 -8.307732 23.353639 0.000000 0.000000 0.000000 -7.125000 0.000000 0.000000 -10.404227 6.458677 -9.326756 0.000000 0.000000 0.000000 -1.895804 16.640470 28.723797 -24.982643 -36.186263 -8.279653 -10.991672 23.002807 38.072680 0.000000 0.000000 0.000000 7.125000 0.000000 0.000000 31.161761 66.023121 -16.501462
-0.575952 18.696019 5.552397 -1.631136 -4.591198 1.974923 0.000000 0.000000 0.000000 -13.537080 -8.701132 -0.812101 1.210658 6.979965 19.656165 1.786481 7.686668 -29.004898 7.774796 -15.951135 -51.747497 0.000000 0.000000 0.000000 0.000000 0.000000 0.000000 0.000000 0.000000 0.000000 0.000000 0.000000 0.000000 0.000000 0.000000 0.000000 -0.780505 0.239997 1.981330 1.282712 0.332885 -2.462223 1.741534 0.205510 -3.655933 -3.313858 -0.946951 -15.032373 2.986191 -1.268835 24.418453 1.451883 -0.543051 10.324212 0.000000 0.000000 0.000000 0.271744 11.312559 -33.397881 19.967700 -30.603336 5.514910 12.328686 -8.327822 23.349727 0.000000 0.000000 0.000000 -7.125000 0.000000 0.000000 -10.422337 6.466060 -9.341976 0.000000 0.000000 0.000000 -1.880888 16.651673 28.680481 -25.007656 -36.211779 -8.294409 -10.965641 22.965814 38.052383 0.000000 0.000000 0.000000 7.125000 0.000000 0.000000 31.162046 65.998861 -16.484315
-0.576608 18.696154 5.554530 -1.620575 -4.567123 1.965361 0.000000 0.000000 0.000000 -13.534511 -8.648137 -0.818141 1.209262 6.976195 19.644992 1.776739 7.670979 -28.930531 7.802081 -15.971751 -51.846735 0.000000 0.000000 0.000000 0.000000 0.000000 0.000000 0.000000 0.000000 0.000000 0.000000 0.000000 0.000000 0.000000 0.000000 0.000000 -0.824122 0.232132 1.990628 1.297418 0.321341 -2.474782 1.781709 0.201377 -3.674240 -3.392586 -0.971938 -14.987362 3.022585 -1.294292 24.405444 1.474646 -0.558045 10.312502 0.000000 0.000000 0.000000 0.237905 11.299561 -33.416446 19.945435 -30.576570 5.503587 12.298959 -8.352767 23.326734 0.000000 0.000000 0.000000 -7.125000 0.000000 0.000000 -10.439960 6.492447 -9.353014 0.000000 0.000000 0.000000 -1.852054 16.653858 28.611566 -24.944786 -36.147518 -8.257326 -11.618967 23.206013 37.728753 0.000000 0.000000 0.000000 7.125000 0.000000 0.000000 30.031643 65.917369 -15.782423
-0.576769 18.696352 5.556141 -1.606282 -4.523579 1.941723 0.000000 0.000000 0.000000 -13.558274 -8.669965 -0.783242 1.207156 6.970420 19.627811 1.771899 7.727025 -28.933876 7.830831 -15.993377 -51.951043 0.000000 0.000000 0.000000 0.000000 0.000000 0.000000 0.000000 0.000000 0.000000 0.000000 0.000000 0.000000 0.000000 0.000000 0.000000 -0.860361 0.235566 2.034817 1.292466 0.324376 -2.483121 1.796734 0.204083 -3.708239 -3.359814 -0.970616 -14.985603 2.995357 -1.293111 24.374874 1.459293 -0.557578 10.300629 0.000000 0.000000 0.000000 0.255077 11.268372 -33.483724 19.940814 -30.570971 5.501191 12.324547 -8.365418 23.276084 0.000000 0.000000 0.000000 -7.125000 0.000000 0.000000 -10.422130 6.539812 -9.326780 0.000000 0.000000 0.000000 -1.781847 16.637175 28.434628 -24.998464 -36.202443 -8.288986 -10.713027 23.253302 37.958595 0.000000 0.000000 0.000000 7.125000 0.000000 0.000000 31.305896 65.848601 -16.460302
-0.577826 18.696600 5.558429 -1.586891 -4.490589 1.932200 0.000000 0.000000 0.000000 -13.567219 -8.633922 -0.777264 1.204290 6.962313 19.603901 1.763617 7.714407 -28.870979 7.835598 -15.997014 -51.968294 0.000000 0.000000 0.000000 0.000000 0.000000 0.000000 0.000000 0.000000 0.000000 0.000000 0.000000 0.000000 0.000000 0.000000 0.000000 -0.896307 0.226208 2.062070 1.281133 0.310157 -2.503998 1.806012 0.198194 -3.744878 -3.311405 -0.969391 -14.967473 2.954633 -1.293791 24.364149 1.436389 -0.558352 10.292723 0.000000 0.000000 0.000000 0.255510 11.301029 -33.478107 19.981520 -30.619996 5.521911 12.234668 -8.295155 23.349550 0.000000 0.000000 0.000000 -7.125000 0.000000 0.000000 -10.480555 6.477260 -9.393742 0.000000 0.000000 0.000000 -1.780757 16.630763 28.519595 -24.898401 -36.099946 -8.229955 -11.665209 23.365456 37.412269 0.000000 0.000000 0.000000 7.125000 0.000000 0.000000 29.571600 65.663638 -15.352898
-0.578412 18.696432 5.561237 -1.557547 -4.485043 1.935654 0.000000 0.000000 0.000000 -13.609674 -8.690464 -0.746360 1.203380 6.959871 19.596413 1.765370 7.738816 -28.897774 7.837748 -15.998558 -51.976073 0.000000 0.000000 0.000000 0.000000 0.000000 0.000000 0.000000 0.000000 0.000000 0.000000 0.000000 0.000000 0.000000 0.000000 0.000000 -0.950557 0.219512 2.075509 1.272510 0.299014 -2.534107 1.828142 0.194463 -3.783592 -3.213593 -0.941837 -14.966808 2.850800 -1.253138 24.362160 1.388207 -0.542856 10.289116 0.000000 0.000000 0.000000 0.298872 11.369104 -33.626661 20.051816 -30.704694 5.557784 12.216262 -8.365982 23.248990 0.000000 0.000000 0.000000 -7.125000 0.000000 0.000000 -10.488254 6.579441 -9.379859 0.000000 0.000000 0.000000 -1.819444 16.680397 28.662396 -24.858587 -36.059075 -8.206524 -12.308352 23.349881 37.246793 0.000000 0.000000 0.000000 7.125000 0.000000 0.000000 28.664825 65.707515 -14.873618
-0.577900 18.696985 5.563715 -1.595614 -4.503653 1.943191 0.000000 0.000000 0.000000 -13.572705 -8.656867 -0.753139 1.203298 6.959663 19.595889 1.758499 7.796954 -28.888800 7.863167 -16.017702 -52.068454 0.000000 0.000000 0.000000 0.000000 0.000000 0.000000 0.000000 0.000000 0.000000 0.000000 0.000000 0.000000 0.000000 0.000000 0.000000 -0.916964 0.230364 2.056869 1.285119 0.315254 -2.539511 1.821469 0.201867 -3.779146 -3.194746 -0.954986 -15.004424 2.792088 -1.260261 24.377265 1.363343 -0.551098 10.301711 0.000000 0.000000 0.000000 0.348251 11.397167 -33.823160 20.108365 -30.772658 5.586651 12.219697 -8.461596 23.119899 0.000000 0.000000 0.000000 -7.125000 0.000000 0.000000 -10.481546 6.707620 -9.347156 0.000000 0.000000 0.000000 -1.846146 16.637445 28.683434 -24.836345 -36.036237 -8.193450 -11.963711 23.188305 37.447271 0.000000 0.000000 0.000000 7.125000 0.000000 0.000000 29.293741 65.779240 -15.272496
-0.578326 18.696587 5.563474 -1.608621 -4.475813 1.949419 0.000000 0.000000 0.000000 -13.533476 -8.609194 -0.803475 1.205139 6.964745 19.611063 1.752955 7.728017 -28.808674 7.848157 -16.006485 -52.013991 0.000000 0.000000 0.000000 0.000000 0.000000 0.000000 0.000000 0.000000 0.000000 0.000000 0.000000 0.000000 0.000000 0.000000 0.000000 -0.949358 0.216557 2.074227 1.308823 0.296444 -2.561562 1.865222 0.194104 -3.811436 -3.182929 -0.962413 -15.027862 2.759197 -1.265410 24.422556 1.349384 -0.556284 10.322627 0.000000 0.000000 0.000000 0.356010 11.417051 -33.931957 20.123704 -30.791107 5.594552 12.268971 -8.622383 23.176888 0.000000 0.000000 0.000000 -7.125000 0.000000 0.000000 -10.452938 6.645067 -9.333686 0.000000 0.000000 0.000000 -1.877550 16.653954 28.689869 -24.854131 -36.054498 -8.203875 -12.016770 23.258767 37.479687 0.000000 0.000000 0.000000 7.125000 0.000000 0.000000 29.277989 65.821802 -15.292019
